<svg xmlns="http://www.w3.org/2000/svg" width="16.866" height="16.866" viewBox="0 0 16.866 16.866">
  <g id="chip-1386" transform="translate(0.05 0.05)">
    <g id="Group_3997" data-name="Group 3997">
      <path id="Path_3647" data-name="Path 3647" d="M95.444,95.63H91.151a.186.186,0,0,1-.186-.186V91.151a.186.186,0,0,1,.186-.186h4.293a.186.186,0,0,1,.186.186v4.293A.186.186,0,0,1,95.444,95.63Zm-4.107-.373h3.921v-3.92H91.337Z" transform="translate(-84.914 -84.914)" fill="#333" stroke="#333" stroke-width="0.1"/>
      <path id="Path_3648" data-name="Path 3648" d="M16.58,8.57a.186.186,0,0,0,0-.373H14.357V5.73H16.58a.186.186,0,0,0,0-.373H14.357V3.11a.7.7,0,0,0-.7-.7H11.408V.186a.186.186,0,0,0-.373,0V2.41H8.57V.186a.186.186,0,1,0-.373,0V2.41H5.73V.186a.186.186,0,1,0-.373,0V2.41H3.11a.7.7,0,0,0-.7.7V5.358H.186a.186.186,0,1,0,0,.373H2.41V8.2H.186a.186.186,0,1,0,0,.373H2.41v2.466H.186a.186.186,0,0,0,0,.373H2.41v2.248a.7.7,0,0,0,.7.7H5.358V16.58a.186.186,0,0,0,.373,0V14.357H8.2V16.58a.186.186,0,0,0,.373,0V14.357h2.466V16.58a.186.186,0,0,0,.373,0V14.357h2.248a.7.7,0,0,0,.7-.7V11.408H16.58a.186.186,0,0,0,0-.373H14.357V8.57Zm-2.6,2.466h-.76a.186.186,0,1,0,0,.373h.76v2.248a.328.328,0,0,1-.327.327H11.408v-.76a.186.186,0,0,0-.373,0v.76H8.57v-.76a.186.186,0,0,0-.373,0v.76H5.73v-.76a.186.186,0,0,0-.373,0v.76H3.11a.328.328,0,0,1-.327-.327V11.408h.76a.186.186,0,0,0,0-.373h-.76V8.57h.76a.186.186,0,1,0,0-.373h-.76V5.73h.76a.186.186,0,1,0,0-.373h-.76V3.11a.328.328,0,0,1,.327-.328H5.358v.76a.186.186,0,1,0,.373,0v-.76H8.2v.76a.186.186,0,1,0,.373,0v-.76h2.466v.76a.186.186,0,0,0,.373,0v-.76h2.248a.328.328,0,0,1,.327.328V5.358h-.76a.186.186,0,1,0,0,.373h.76V8.2h-.76a.186.186,0,1,0,0,.373h.76Z" fill="#333" stroke="#333" stroke-width="0.1"/>
      <path id="Path_3649" data-name="Path 3649" d="M104.459,105.077a.186.186,0,0,1-.132-.318l.843-.843a.186.186,0,0,1,.263.263l-.843.843A.186.186,0,0,1,104.459,105.077Z" transform="translate(-97.337 -96.953)" fill="#333" stroke="#333" stroke-width="0.1"/>
      <path id="Path_3650" data-name="Path 3650" d="M132.837,104.569a.186.186,0,0,1-.132-.318l.335-.335a.186.186,0,1,1,.263.263l-.335.335A.186.186,0,0,1,132.837,104.569Z" transform="translate(-123.828 -96.953)" fill="#333" stroke="#333" stroke-width="0.1"/>
      <path id="Path_3651" data-name="Path 3651" d="M104.2,118.525a.186.186,0,0,1-.132-.318l1.382-1.382a.186.186,0,1,1,.264.263l-1.382,1.382A.186.186,0,0,1,104.2,118.525Z" transform="translate(-97.092 -109.003)" fill="#333" stroke="#333" stroke-width="0.1"/>
    </g>
  </g>
</svg>
