<svg id="imac-700" xmlns="http://www.w3.org/2000/svg" width="16.056" height="12.207" viewBox="0 0 16.056 12.207">
  <g id="Group_4000" data-name="Group 4000">
    <path id="Path_3663" data-name="Path 3663" d="M15.563,30.613H.493A.493.493,0,0,0,0,31.105v9.409a.493.493,0,0,0,.493.493h6.6v1.277H5.562a.268.268,0,0,0,0,.535h4.932a.268.268,0,0,0,0-.535H8.966V41.007h6.6a.493.493,0,0,0,.493-.493V31.105A.493.493,0,0,0,15.563,30.613Zm-.042,9.86H.535V31.148H15.52Z" transform="translate(0 -30.613)" fill="#333" fill-rule="evenodd"/>
  </g>
</svg>
