<svg xmlns="http://www.w3.org/2000/svg" width="17.253" height="10.716" viewBox="0 0 17.253 10.716">
  <g id="game-controller-1396" transform="translate(0.127 0.076)">
    <g id="Group_3996" data-name="Group 3996">
      <path id="Path_3641" data-name="Path 3641" d="M1.083,58.469c-.453,0-.789-.3-.956-.881-.656-2.266,1.349-8.958,3.24-9.566a4.533,4.533,0,0,1,2.525.354,9.714,9.714,0,0,0,2.608.54,10.832,10.832,0,0,0,2.434-.524,4.963,4.963,0,0,1,2.709-.366c1.88.6,3.885,7.3,3.229,9.562-.2.7-.653,1-1.268.838a13.219,13.219,0,0,1-2.748-1.041A11.553,11.553,0,0,0,8.5,56.033a11.476,11.476,0,0,0-4.321,1.341,13.593,13.593,0,0,1-2.793,1.054A1.189,1.189,0,0,1,1.083,58.469ZM3.888,48.315a1.092,1.092,0,0,0-.395.062c-1.551.5-3.648,6.878-3,9.105.19.656.553.643.81.577a13.352,13.352,0,0,0,2.72-1.03,11.735,11.735,0,0,1,4.475-1.375H8.5a11.819,11.819,0,0,1,4.509,1.386,12.992,12.992,0,0,0,2.674,1.016c.267.068.63.081.82-.575.645-2.227-1.453-8.606-2.993-9.1a4.953,4.953,0,0,0-2.476.372,11.074,11.074,0,0,1-2.534.539h0a9.971,9.971,0,0,1-2.724-.556A7.638,7.638,0,0,0,3.888,48.315Z" transform="translate(0.001 -47.934)" stroke="#333" stroke-width="0.2"/>
      <path id="Path_3642" data-name="Path 3642" d="M41.12,90.874a.992.992,0,0,1-.991-.991v-.189h-.189a.991.991,0,1,1,0-1.982h.189v-.189a.991.991,0,0,1,1.983,0v.189H42.3a.991.991,0,1,1,0,1.982h-.189v.189A.992.992,0,0,1,41.12,90.874Zm-1.181-2.785a.613.613,0,0,0,0,1.227h.567v.567a.613.613,0,0,0,1.227,0v-.567H42.3a.613.613,0,0,0,0-1.227h-.567v-.567a.613.613,0,1,0-1.227,0v.567Z" transform="translate(-36.321 -83.928)" stroke="#333" stroke-width="0.2"/>
      <path id="Path_3643" data-name="Path 3643" d="M172.494,89.023a.763.763,0,1,1,.763-.763A.764.764,0,0,1,172.494,89.023Zm0-1.148a.385.385,0,1,0,.385.385A.386.386,0,0,0,172.494,87.875Z" transform="translate(-160.15 -84.829)" stroke="#333" stroke-width="0.2"/>
      <path id="Path_3644" data-name="Path 3644" d="M172.494,129.889a.763.763,0,1,1,.763-.763A.764.764,0,0,1,172.494,129.889Zm0-1.148a.385.385,0,1,0,.385.385A.386.386,0,0,0,172.494,128.741Z" transform="translate(-160.15 -122.939)" stroke="#333" stroke-width="0.2"/>
      <path id="Path_3645" data-name="Path 3645" d="M152.065,109.455a.763.763,0,1,1,.763-.763A.764.764,0,0,1,152.065,109.455Zm0-1.148a.385.385,0,1,0,.385.385A.386.386,0,0,0,152.065,108.307Z" transform="translate(-141.098 -103.883)" stroke="#333" stroke-width="0.2"/>
      <path id="Path_3646" data-name="Path 3646" d="M192.929,109.455a.763.763,0,1,1,.763-.763A.764.764,0,0,1,192.929,109.455Zm0-1.148a.385.385,0,1,0,.385.385A.386.386,0,0,0,192.929,108.307Z" transform="translate(-179.206 -103.883)" stroke="#333" stroke-width="0.2"/>
    </g>
  </g>
</svg>
