<svg id="heart-beat-3517" xmlns="http://www.w3.org/2000/svg" width="17.001" height="14.546" viewBox="0 0 17.001 14.546">
  <g id="Group_3998" data-name="Group 3998">
    <path id="Path_3652" data-name="Path 3652" d="M54.682,157.306a.376.376,0,0,1-.267-.111l-4.783-4.783a.378.378,0,1,1,.534-.534l4.516,4.516,4.516-4.516a.378.378,0,1,1,.534.534L54.949,157.2A.376.376,0,0,1,54.682,157.306Z" transform="translate(-46.182 -142.76)" fill="#333"/>
    <path id="Path_3653" data-name="Path 3653" d="M7.8,91.4H7.781a.377.377,0,0,1-.335-.238L5.62,86.575,4.48,89.008a.378.378,0,0,1-.342.217H.378a.378.378,0,1,1,0-.756H3.9l1.408-3.006a.383.383,0,0,1,.353-.217.378.378,0,0,1,.34.238L7.836,90.1l1.684-3.369a.378.378,0,0,1,.338-.209h0a.378.378,0,0,1,.338.211l.854,1.735h5.571a.378.378,0,1,1,0,.756H10.817a.378.378,0,0,1-.339-.211l-.622-1.263L8.135,91.194A.378.378,0,0,1,7.8,91.4Z" transform="translate(0 -80.726)" fill="#333"/>
    <path id="Path_3654" data-name="Path 3654" d="M1.09,25.234a.377.377,0,0,1-.312-.165A4.385,4.385,0,0,1,7.5,19.5l1.012,1.012L9.528,19.5a4.385,4.385,0,0,1,6.726,5.57.378.378,0,0,1-.624-.426,3.63,3.63,0,0,0-5.567-4.609L8.783,21.313a.389.389,0,0,1-.534,0L6.97,20.034A3.63,3.63,0,0,0,1.4,24.643a.378.378,0,0,1-.312.591Z" transform="translate(-0.015 -18.217)" fill="#333"/>
  </g>
</svg>
