<svg id="logo" xmlns="http://www.w3.org/2000/svg" width="28.315" height="18.469" viewBox="0 0 28.315 18.469">
  <g id="group" opacity="0">
    <rect id="Rectangle" width="28.315" height="18.469" fill="#fff"/>
  </g>
  <rect id="Rectangle-2" data-name="Rectangle" width="7.469" height="12.031" transform="translate(10.424 3.218)" fill="#ff5f00"/>
  <path id="Path" d="M9.589,7.65a7.6,7.6,0,0,1,2.963-6.015A7.836,7.836,0,0,0,2.059,2.46a7.574,7.574,0,0,0,0,10.382,7.836,7.836,0,0,0,10.493.825A7.6,7.6,0,0,1,9.589,7.65Z" transform="translate(1.604 1.584)" fill="#eb001b"/>
  <path id="Shape" d="M.652.6V.147L.559.539H.5L.4.147V.6H.341V0H.427l.1.431L.626,0H.711V.6ZM.111.6V.1H0V0H.282V.1H.164V.6Z" transform="translate(25.82 13.679)" fill="#f79e1b"/>
  <path id="Path-2" data-name="Path" d="M12.553,7.653a7.642,7.642,0,0,1-4.368,6.882A7.847,7.847,0,0,1,0,13.668,7.613,7.613,0,0,0,2.964,7.652,7.613,7.613,0,0,0,0,1.636,7.847,7.847,0,0,1,8.185.769a7.642,7.642,0,0,1,4.368,6.882Z" transform="translate(14.157 1.581)" fill="#f79e1b"/>
</svg>
