<svg xmlns="http://www.w3.org/2000/svg" width="32.999" height="33" viewBox="0 0 32.999 33">
  <path id="bx-phone" d="M28.539,19.872a1.735,1.735,0,0,0-2.455,0l-2.768,2.768a13,13,0,0,1-5.195-2.768,13,13,0,0,1-2.768-5.195l2.768-2.768a1.735,1.735,0,0,0,0-2.455L11.177,2.509a1.735,1.735,0,0,0-2.455,0L4.013,7.218A3.47,3.47,0,0,0,3,9.709a26.571,26.571,0,0,0,7.463,17.828A26.581,26.581,0,0,0,28.288,35h.049a3.431,3.431,0,0,0,2.439-1.017l4.709-4.709a1.735,1.735,0,0,0,0-2.455Zm-.221,11.654a22.986,22.986,0,0,1-15.406-6.445A22.992,22.992,0,0,1,6.468,9.673L9.949,6.192l4.49,4.49-2.245,2.245a1.736,1.736,0,0,0-.472,1.583c.042.2,1.061,4.935,3.943,7.817s7.617,3.9,7.817,3.943a1.721,1.721,0,0,0,1.583-.471l2.247-2.245,4.49,4.49Z" transform="translate(-2.995 -2)" fill="#333"/>
</svg>
