<svg xmlns="http://www.w3.org/2000/svg" width="14.034" height="16.98" viewBox="0 0 14.034 16.98">
  <path id="my-orders" d="M.649,3.989H3.61v-.6a3.394,3.394,0,1,1,6.789,0v.6h2.984a.649.649,0,0,1,.46.191.658.658,0,0,1,.191.459v10A2.339,2.339,0,0,1,11.7,16.97H2.332A2.339,2.339,0,0,1,0,14.637v-10A.651.651,0,0,1,.649,3.989Zm3.787,0H9.571v-.6a2.567,2.567,0,0,0-5.133,0v.6Zm-.829,1.6V4.815H.829v9.823a1.51,1.51,0,0,0,1.5,1.5H11.7a1.52,1.52,0,0,0,1.5-1.5V4.815H10.4V5.6a.945.945,0,1,1-.829-.014V4.815H4.438V5.6a.945.945,0,1,1-.829,0Z" transform="translate(0 0.01)" fill="#333"/>
</svg>
