<svg xmlns="http://www.w3.org/2000/svg" width="15.724" height="15.784" viewBox="0 0 15.724 15.784">
  <path id="cosmetics" d="M28.2,50.8a1.277,1.277,0,0,1,.224.077c-.1-.978.319-.156.495.358.058.206.18.553.31,1l.058,2.285-1.836-6.543a4.677,4.677,0,0,1,.634,1.01c.115.254.025.107.113.232v1.59Zm-2.893-4a11.2,11.2,0,0,0-3.9-1.527,4.187,4.187,0,0,1-1.97,3.545,7.164,7.164,0,0,1-3.743.719,2.869,2.869,0,0,0,.275.143,15.18,15.18,0,0,0,5.325.824A15.8,15.8,0,0,0,26.8,49.8a1.83,1.83,0,0,0,.82-.56A5.733,5.733,0,0,0,25.3,46.815Zm2.374,4.412c.038-.158,0-1.1,0-1.311a3.3,3.3,0,0,1-.675.372,16.149,16.149,0,0,1-5.717.749,15.756,15.756,0,0,1-5.537-.871A2.864,2.864,0,0,1,15.3,49.9v1.374c.852.782,3.434,1.2,6.06,1.212s5.307-.382,6.323-1.212v-.048ZM14.786,49.47a1.913,1.913,0,0,0-.661,1.806,6.13,6.13,0,0,0,0,.861V58.5l.113.077c1.772,1.155,5.119,1.521,8.183,1.392,3.008-.127,5.711-.713,6.339-1.483v-6.3a.911.911,0,0,0-.269-.644.927.927,0,0,0-.3-.2v.032a.259.259,0,0,1-.1.2c-1.059.97-3.931,1.428-6.743,1.414s-5.626-.5-6.5-1.434h0a.259.259,0,0,1-.069-.176h0l.006-1.911Zm4.539-1.2a12.121,12.121,0,0,0-2.2.321,7.5,7.5,0,0,0-1.275.428,6.439,6.439,0,0,0,3.313-.652Q19.248,48.322,19.325,48.272ZM29.2,58.762c-.679.9-3.571,1.582-6.749,1.715S15.836,60.22,13.97,59c-.085-.057-.166-.113-.246-.172a.271.271,0,0,1-.061-.067c0-7.98.011-6.875,0-7.055a2.826,2.826,0,0,1,1.034-2.69,7.907,7.907,0,0,1,1.287-.607A8.582,8.582,0,0,1,17,48.092a12.755,12.755,0,0,1,2.921-.354h.016a4.434,4.434,0,0,0,.962-2.776.257.257,0,0,1,.271-.244h.034a46.164,46.164,0,0,1,4.369,1.646,8.5,8.5,0,0,1,1.364,1.061c.58.35,3.153,3.908,2.256,11.331ZM14.786,49.47v-.25a.261.261,0,0,1,.113-.214,3.232,3.232,0,0,1,.529-.335l-.648.806Z" transform="translate(-13.661 -44.718)" fill="#333"/>
</svg>
