<svg id="home-2502" xmlns="http://www.w3.org/2000/svg" width="16.054" height="14.47" viewBox="0 0 16.054 14.47">
  <g id="Group_4001" data-name="Group 4001">
    <path id="Path_3664" data-name="Path 3664" d="M42.907,115.408H31.778a.541.541,0,0,1-.541-.541v-7.382a.541.541,0,1,1,1.082,0v6.841H42.366v-6.841a.541.541,0,1,1,1.082,0v7.382A.541.541,0,0,1,42.907,115.408Z" transform="translate(-29.316 -100.938)" fill="#333"/>
    <path id="Path_3665" data-name="Path 3665" d="M16.914,19.875a.538.538,0,0,1-.3-.094L9.429,14.9,2.247,19.781a.541.541,0,0,1-.608-.895L9.124,13.8a.541.541,0,0,1,.608,0l7.486,5.088a.541.541,0,0,1-.3.989Z" transform="translate(-1.402 -13.704)" fill="#333"/>
    <path id="Path_3666" data-name="Path 3666" d="M176.727,17.574a.541.541,0,0,1-.541-.541v-.868H174.81a.541.541,0,0,1,0-1.082h1.917a.541.541,0,0,1,.541.541v1.409A.541.541,0,0,1,176.727,17.574Z" transform="translate(-163.135 -14.994)" fill="#333"/>
  </g>
</svg>
