<svg id="camera-6726" xmlns="http://www.w3.org/2000/svg" width="17.001" height="13.804" viewBox="0 0 17.001 13.804">
  <g id="Group_3995" data-name="Group 3995">
    <path id="Path_3639" data-name="Path 3639" d="M15.006,37.507H2A2,2,0,0,1,0,35.5V28.016a2,2,0,0,1,2-2.008h.88a1.113,1.113,0,0,0,.382-.068,1.125,1.125,0,0,0,.608-.532l.266-.5a2.254,2.254,0,0,1,1.994-1.2h4.75a2.254,2.254,0,0,1,1.994,1.2l.266.5a1.12,1.12,0,0,0,.99.6h.88a2,2,0,0,1,2,2.008V35.5a2.01,2.01,0,0,1-.889,1.672A1.976,1.976,0,0,1,15.006,37.507ZM2,26.763a1.248,1.248,0,0,0-1.24,1.253V35.5A1.248,1.248,0,0,0,2,36.751h13.01a1.223,1.223,0,0,0,.685-.209,1.255,1.255,0,0,0,.555-1.044V28.016a1.248,1.248,0,0,0-1.24-1.253h-.88a1.874,1.874,0,0,1-1.658-1l-.266-.5a1.5,1.5,0,0,0-1.326-.8H6.125a1.5,1.5,0,0,0-1.326.8l-.266.5a1.875,1.875,0,0,1-1.658,1H2Z" transform="translate(0 -23.703)" fill="#333"/>
    <path id="Path_3640" data-name="Path 3640" d="M70.275,86.419a4.067,4.067,0,0,1-1.5-7.835,3.988,3.988,0,0,1,1.5-.29,4.069,4.069,0,0,1,2.853,6.934A3.992,3.992,0,0,1,70.275,86.419Zm0-7.37a3.251,3.251,0,0,0-2.316.968,3.314,3.314,0,0,0,2.316,5.647,3.241,3.241,0,0,0,2.316-.968,3.313,3.313,0,0,0-2.316-5.647Z" transform="translate(-61.774 -74.612)" fill="#333"/>
    <ellipse id="Ellipse_113" data-name="Ellipse 113" cx="0.611" cy="0.616" rx="0.611" ry="0.616" transform="translate(13.591 4.176)" fill="#333"/>
  </g>
</svg>
