<svg xmlns="http://www.w3.org/2000/svg" width="47.5" height="38" viewBox="0 0 47.5 38">
  <path id="truck-solid" d="M1,4V37.25H6a6.274,6.274,0,0,0,12.172,0H31.331a6.274,6.274,0,0,0,12.172,0h5V20.774l-.445-.495-9.5-9.5-.495-.445H29.5V4ZM4.167,7.167H26.333V34.083H18.169A6.274,6.274,0,0,0,6,34.083H4.167ZM29.5,13.5h7.224l8.609,8.609V34.083H43.5a6.274,6.274,0,0,0-12.172,0H29.5Zm-17.417,19a3.167,3.167,0,1,1-3.167,3.167A3.141,3.141,0,0,1,12.083,32.5Zm25.333,0a3.167,3.167,0,1,1-3.167,3.167A3.141,3.141,0,0,1,37.417,32.5Z" transform="translate(-1 -4)" fill="#c9151b"/>
</svg>
