<svg id="return" xmlns="http://www.w3.org/2000/svg" width="36.533" height="36.533" viewBox="0 0 36.533 36.533">
  <path id="Path_3516" data-name="Path 3516" d="M1.522,19.758a1.523,1.523,0,0,0,1.522-1.522A15.177,15.177,0,0,1,18.171,3.044a14.973,14.973,0,0,1,9.805,3.622h-1.4a1.522,1.522,0,1,0,0,3.044h5A1.523,1.523,0,0,0,33.1,8.189V3.172a1.522,1.522,0,1,0-3.044,0V4.44A17.985,17.985,0,0,0,18.171,0,18.224,18.224,0,0,0,0,18.236,1.523,1.523,0,0,0,1.522,19.758Z" fill="#c9151b"/>
  <path id="Path_3517" data-name="Path 3517" d="M69.193,176.32a1.523,1.523,0,0,0-1.522,1.522,15.176,15.176,0,0,1-15.127,15.192,14.972,14.972,0,0,1-9.711-3.539h1.462a1.522,1.522,0,0,0,0-3.044h-5c-.014,0-.026,0-.039,0a1.479,1.479,0,0,0-.173.018c-.043.006-.085.01-.127.02a1.533,1.533,0,0,0-.149.046c-.046.016-.092.03-.136.049s-.081.043-.122.066a1.64,1.64,0,0,0-.14.086c-.011.008-.024.013-.036.022s-.046.044-.07.065a1.194,1.194,0,0,0-.211.223c-.03.039-.059.078-.085.119s-.049.087-.072.131a1.4,1.4,0,0,0-.06.133c-.018.047-.031.094-.044.143s-.025.093-.033.141-.013.108-.017.163c0,.031-.009.062-.009.094v5.017a1.522,1.522,0,1,0,3.044,0v-1.21a17.992,17.992,0,0,0,11.723,4.3,18.224,18.224,0,0,0,18.171-18.236A1.523,1.523,0,0,0,69.193,176.32Z" transform="translate(-34.182 -159.545)" fill="#c9151b"/>
</svg>
