<svg id="chat" xmlns="http://www.w3.org/2000/svg" width="34.279" height="34.279" viewBox="0 0 34.279 34.279">
  <g id="Group_3764" data-name="Group 3764" transform="translate(0 0)">
    <g id="Group_3763" data-name="Group 3763" transform="translate(0 0)">
      <path id="Path_3518" data-name="Path 3518" d="M31.369,20.526a1.339,1.339,0,0,0-2.483,1l1.577,3.9-4.684-2.065a1.339,1.339,0,0,0-1.066-.006,12.911,12.911,0,0,1-5.1,1.029c-7.169,0-11.984-5.613-11.984-10.855,0-5.986,5.376-10.855,11.984-10.855S31.6,7.548,31.6,13.533a10.92,10.92,0,0,1-.119,1.534,1.339,1.339,0,1,0,2.649.4,13.512,13.512,0,0,0,.149-1.929,12.942,12.942,0,0,0-4.337-9.61A15.218,15.218,0,0,0,19.617,0,15.218,15.218,0,0,0,9.292,3.923a13.014,13.014,0,0,0-4.284,8.458A10.825,10.825,0,0,0,0,21.393,10.389,10.389,0,0,0,2.054,27.6L.1,32.438A1.339,1.339,0,0,0,1.88,34.165l5.639-2.486a12.744,12.744,0,0,0,4.466.8c.033,0,.066,0,.1-.005a12.674,12.674,0,0,0,6.3-1.708,11.527,11.527,0,0,0,4.051-3.945,15.408,15.408,0,0,0,2.782-.773L32.4,29.211a1.339,1.339,0,0,0,1.782-1.727ZM11.985,29.793l-.054,0A10.042,10.042,0,0,1,8.018,29,1.338,1.338,0,0,0,6.953,29L3.817,30.385l1.012-2.5a1.339,1.339,0,0,0-.222-1.37,7.816,7.816,0,0,1-1.928-5.119,7.967,7.967,0,0,1,2.475-5.7,13.517,13.517,0,0,0,3.961,7.239,14.967,14.967,0,0,0,9.742,4.122A9.841,9.841,0,0,1,11.985,29.793Z" transform="translate(0 0)" fill="#c9151b"/>
      <circle id="Ellipse_107" data-name="Ellipse 107" cx="1.5" cy="1.5" r="1.5" transform="translate(17.551 12.143)" fill="#c9151b"/>
      <circle id="Ellipse_108" data-name="Ellipse 108" cx="1.5" cy="1.5" r="1.5" transform="translate(23.551 12.143)" fill="#c9151b"/>
      <circle id="Ellipse_109" data-name="Ellipse 109" cx="1.5" cy="1.5" r="1.5" transform="translate(12.551 12.143)" fill="#c9151b"/>
    </g>
  </g>
</svg>
