<svg xmlns="http://www.w3.org/2000/svg" width="35.01" height="35" viewBox="0 0 35.01 35">
  <g id="rocket" transform="translate(0.509 0.499)">
    <path id="Path_3511" data-name="Path 3511" d="M14.748,27.011a.712.712,0,0,1-.5-.207L5.141,17.7a.709.709,0,0,1-.028-.973l6.824-7.645C16.707,3.5,24.475-.111,31.249,0A.707.707,0,0,1,31.94.7c.157,6.778-3.5,14.541-9.09,19.321l-7.632,6.814A.7.7,0,0,1,14.748,27.011ZM6.616,17.17l8.159,8.159,7.145-6.378c5.109-4.366,8.5-11.325,8.607-17.532-6.207.1-13.164,3.5-17.522,8.594Z" transform="translate(2.056 0)" fill="#333" stroke="#333" stroke-width="1"/>
    <path id="Path_3512" data-name="Path 3512" d="M14.271,26.708a.657.657,0,0,1-.2-.031.7.7,0,0,1-.5-.547L12.6,19.348a.708.708,0,0,1,1.4-.2l.759,5.3a16.54,16.54,0,0,0,3.862-10.567.708.708,0,0,1,1.417,0,17.941,17.941,0,0,1-5.216,12.6A.8.8,0,0,1,14.271,26.708Z" transform="translate(5.246 5.488)" fill="#333" stroke="#333" stroke-width="1"/>
    <path id="Path_3513" data-name="Path 3513" d="M8.744,13.6a.611.611,0,0,1-.1-.007l-6.782-.972a.708.708,0,0,1-.4-1.206A17.982,17.982,0,0,1,14.114,6.155a.708.708,0,1,1,0,1.417A16.536,16.536,0,0,0,3.539,11.432l5.306.761a.708.708,0,0,1-.1,1.41Z" transform="translate(0.523 2.565)" fill="#333" stroke="#333" stroke-width="1"/>
    <path id="Path_3514" data-name="Path 3514" d="M18.174,11.449a3.54,3.54,0,1,1,2.5-1.036A3.531,3.531,0,0,1,18.174,11.449Zm0-5.664a2.124,2.124,0,1,0,1.5.621,2.12,2.12,0,0,0-1.5-.621Zm2,4.128h.014Z" transform="translate(6.099 1.82)" fill="#333" stroke="#333" stroke-width="1"/>
    <path id="Path_3515" data-name="Path 3515" d="M.708,27.333a.707.707,0,0,1-.679-.911c.232-.775,2.314-7.623,3.829-9.139a4.379,4.379,0,0,1,6.193,6.193C8.536,24.991,1.687,27.072.912,27.3a.779.779,0,0,1-.2.028Zm6.248-9.916a2.957,2.957,0,0,0-2.1.866c-.817.819-2.178,4.475-3.076,7.265,2.788-.9,6.446-2.258,7.264-3.076a2.96,2.96,0,0,0-2.093-5.055Z" transform="translate(0 6.668)" fill="#333" stroke="#333" stroke-width="1"/>
  </g>
</svg>
