<svg id="return" xmlns="http://www.w3.org/2000/svg" width="25.933" height="25.933" viewBox="0 0 25.933 25.933">
  <path id="Path_3516" data-name="Path 3516" d="M1.081,14.025a1.081,1.081,0,0,0,1.081-1.081A10.773,10.773,0,0,1,12.9,2.161a10.628,10.628,0,0,1,6.96,2.571h-.99a1.081,1.081,0,1,0,0,2.161h3.546A1.081,1.081,0,0,0,23.5,5.813V2.251a1.081,1.081,0,1,0-2.161,0v.9A12.767,12.767,0,0,0,12.9,0,12.937,12.937,0,0,0,0,12.945,1.081,1.081,0,0,0,1.081,14.025Z" fill="#333"/>
  <path id="Path_3517" data-name="Path 3517" d="M60.077,176.32A1.081,1.081,0,0,0,59,177.4a10.773,10.773,0,0,1-10.738,10.784,10.628,10.628,0,0,1-6.893-2.512H42.4a1.081,1.081,0,0,0,0-2.161H38.857l-.028,0a1.047,1.047,0,0,0-.123.012c-.03,0-.061.007-.09.014a1.091,1.091,0,0,0-.106.033c-.032.011-.065.021-.1.035s-.058.031-.086.047-.068.038-.1.061c-.008.006-.017.009-.025.016s-.032.031-.05.046a.847.847,0,0,0-.15.158c-.021.028-.042.055-.061.084s-.035.062-.051.093a.987.987,0,0,0-.043.095c-.012.033-.022.067-.031.1s-.018.066-.023.1-.009.077-.012.116c0,.022-.006.044-.006.066v3.561a1.081,1.081,0,1,0,2.161,0v-.859a12.771,12.771,0,0,0,8.322,3.051,12.937,12.937,0,0,0,12.9-12.945A1.081,1.081,0,0,0,60.077,176.32Z" transform="translate(-35.225 -164.413)" fill="#333"/>
</svg>
