<svg id="Group_3764" data-name="Group 3764" xmlns="http://www.w3.org/2000/svg" width="32.002" height="32.002" viewBox="0 0 32.002 32.002">
  <g id="Group_3763" data-name="Group 3763" transform="translate(0 0)">
    <path id="Path_3518" data-name="Path 3518" d="M29.285,19.162a1.25,1.25,0,0,0-2.318.937l1.472,3.642-4.373-1.928a1.25,1.25,0,0,0-.995-.006,12.053,12.053,0,0,1-4.758.961c-6.692,0-11.188-5.24-11.188-10.134C7.126,7.046,12.145,2.5,18.314,2.5S29.5,7.046,29.5,12.634a10.194,10.194,0,0,1-.111,1.432,1.25,1.25,0,1,0,2.473.369,12.614,12.614,0,0,0,.139-1.8,12.082,12.082,0,0,0-4.049-8.972A14.206,14.206,0,0,0,18.314,0,14.207,14.207,0,0,0,8.675,3.662a12.149,12.149,0,0,0-4,7.9A10.105,10.105,0,0,0,0,19.971a9.7,9.7,0,0,0,1.917,5.8L.092,30.283A1.25,1.25,0,0,0,1.755,31.9l5.265-2.321a11.9,11.9,0,0,0,4.169.743c.031,0,.062,0,.093,0a11.832,11.832,0,0,0,5.881-1.594,10.761,10.761,0,0,0,3.782-3.682,14.385,14.385,0,0,0,2.6-.722l6.707,2.956a1.25,1.25,0,0,0,1.663-1.612Zm-18.1,8.652-.051,0a9.375,9.375,0,0,1-3.652-.747,1.25,1.25,0,0,0-.995.006l-2.927,1.29.944-2.336A1.25,1.25,0,0,0,4.3,24.75a7.3,7.3,0,0,1-1.8-4.779,7.437,7.437,0,0,1,2.311-5.326,12.619,12.619,0,0,0,3.7,6.758A13.973,13.973,0,0,0,17.6,25.251,9.187,9.187,0,0,1,11.188,27.814Z" transform="translate(0 0)" fill="#333"/>
    <circle id="Ellipse_107" data-name="Ellipse 107" cx="1" cy="1" r="1" transform="translate(17 12.001)" fill="#333"/>
    <circle id="Ellipse_108" data-name="Ellipse 108" cx="1" cy="1" r="1" transform="translate(22 12.001)" fill="#333"/>
    <circle id="Ellipse_109" data-name="Ellipse 109" cx="1" cy="1" r="1" transform="translate(12 12.001)" fill="#333"/>
  </g>
</svg>
